<svg width="33" height="32" viewBox="0 0 33 32" fill="none" xmlns="http://www.w3.org/2000/svg">
<path d="M9.59141 24.0513C9.59141 22.8363 8.60643 21.8513 7.39141 21.8513C6.17638 21.8513 5.19141 22.8363 5.19141 24.0513V27.9681C5.19141 29.1831 6.17638 30.1681 7.39141 30.1681C8.60643 30.1681 9.59141 29.1831 9.59141 27.9681V24.0513Z" stroke="#4D3EE9" stroke-width="2" stroke-linejoin="round"/>
<path d="M18.7984 19.1644C18.7984 17.9493 17.8135 16.9644 16.5984 16.9644C15.3834 16.9644 14.3984 17.9493 14.3984 19.1644V27.968C14.3984 29.183 15.3834 30.168 16.5984 30.168C17.8135 30.168 18.7984 29.183 18.7984 27.968V19.1644Z" stroke="#4D3EE9" stroke-width="2" stroke-linejoin="round"/>
<path d="M28.068 13.1915C28.068 11.9764 27.083 10.9915 25.868 10.9915C24.6529 10.9915 23.668 11.9764 23.668 13.1915V27.968C23.668 29.183 24.6529 30.168 25.868 30.168C27.083 30.168 28.068 29.183 28.068 27.968V13.1915Z" stroke="#4D3EE9" stroke-width="2" stroke-linejoin="round"/>
<path d="M4.39453 16.0921L27.4812 2.52124" stroke="#FF6FA2" stroke-width="2" stroke-linecap="round"/>
<path d="M23.6211 1.45801L27.5895 2.52136L26.5262 6.48982" stroke="#FF6FA2" stroke-width="2" stroke-linecap="round" stroke-linejoin="round"/>
</svg>
