<svg width="33" height="32" viewBox="0 0 33 32" fill="none" xmlns="http://www.w3.org/2000/svg">
<path fill-rule="evenodd" clip-rule="evenodd" d="M23.093 4C20.191 4 17.344 5.846 16.395 8.475C15.447 5.902 12.6 4 9.698 4C6.02 4 3.03 6.971 3 10.657C3 16.922 7.912 22.684 16.395 28.055C24.879 22.685 29.791 16.922 29.791 10.657C29.76 6.971 26.77 4 23.093 4Z" stroke="#4D3EE9" stroke-width="2" stroke-linecap="round" stroke-linejoin="round"/>
<path d="M10.1367 14.5239C10.9715 15.3613 11.9634 16.0258 13.0554 16.4791C14.1475 16.9325 15.3183 17.1658 16.5007 17.1658C17.6831 17.1658 18.8539 16.9325 19.946 16.4791C21.0381 16.0258 22.0299 15.3613 22.8647 14.5239" stroke="#FF6FA2" stroke-width="2" stroke-linecap="round" stroke-linejoin="round"/>
</svg>
