<svg width="32" height="32" viewBox="0 0 32 32" fill="none" xmlns="http://www.w3.org/2000/svg">
<path d="M16.5 30C23.956 30 30 23.956 30 16.5C30 9.044 23.956 3 16.5 3C9.044 3 3 9.044 3 16.5C3 23.956 9.044 30 16.5 30ZM16.5 28C10.149 28 5 22.851 5 16.5C5 10.149 10.149 5 16.5 5C22.851 5 28 10.149 28 16.5C28 22.851 22.851 28 16.5 28Z" fill="#4D3EE9"/>
<path d="M14.793 9.18899V16.208C14.793 16.7384 15.0037 17.2471 15.3788 17.6222C15.7538 17.9973 16.2625 18.208 16.793 18.208H22.397C22.6622 18.208 22.9165 18.1026 23.1041 17.9151C23.2916 17.7276 23.397 17.4732 23.397 17.208C23.397 16.9428 23.2916 16.6884 23.1041 16.5009C22.9165 16.3133 22.6622 16.208 22.397 16.208H16.793V9.18799C16.793 8.92277 16.6876 8.66842 16.5001 8.48088C16.3125 8.29335 16.0582 8.18799 15.793 8.18799C15.5278 8.18799 15.2734 8.29335 15.0859 8.48088C14.8983 8.66842 14.793 8.92277 14.793 9.18799V9.18899Z" fill="#FF6FA2"/>
</svg>
