<svg width="33" height="32" viewBox="0 0 33 32" fill="none" xmlns="http://www.w3.org/2000/svg">
<path d="M15.628 29.256C23.1545 29.256 29.256 23.1545 29.256 15.628C29.256 8.10146 23.1545 2 15.628 2C8.10146 2 2 8.10146 2 15.628C2 23.1545 8.10146 29.256 15.628 29.256Z" stroke="#4D3EE9" stroke-width="2"/>
<path d="M11.7619 23.357C11.5968 23.4435 11.4108 23.4822 11.2248 23.4686C11.0389 23.4551 10.8605 23.3898 10.7097 23.2802C10.5589 23.1706 10.4417 23.021 10.3714 22.8483C10.3012 22.6756 10.2805 22.4868 10.3119 22.303L11.1199 17.585L7.69291 14.244C7.55921 14.1138 7.46462 13.9487 7.41984 13.7676C7.37506 13.5864 7.38187 13.3963 7.43952 13.2188C7.49716 13.0412 7.60333 12.8834 7.74602 12.7631C7.88871 12.6428 8.06222 12.5648 8.24692 12.538L12.9839 11.85L15.1019 7.55699C15.1844 7.38953 15.3122 7.24851 15.4707 7.1499C15.6293 7.05129 15.8122 6.99902 15.9989 6.99902C16.1856 6.99902 16.3686 7.05129 16.5271 7.1499C16.6856 7.24851 16.8134 7.38953 16.8959 7.55699L19.0139 11.85L23.7509 12.538C23.9356 12.5648 24.1091 12.6428 24.2518 12.7631C24.3945 12.8834 24.5007 13.0412 24.5583 13.2188C24.616 13.3963 24.6228 13.5864 24.578 13.7676C24.5332 13.9487 24.4386 14.1138 24.3049 14.244L20.8779 17.585L21.6869 22.303C21.7184 22.4869 21.6979 22.6759 21.6275 22.8488C21.5572 23.0216 21.4399 23.1713 21.289 23.2809C21.138 23.3906 20.9594 23.4558 20.7733 23.4693C20.5872 23.4827 20.4011 23.4438 20.2359 23.357L15.9989 21.13L11.7619 23.357ZM15.5339 19.115C15.6773 19.0397 15.8369 19.0003 15.9989 19.0003C16.1609 19.0003 16.3205 19.0397 16.4639 19.115L19.3739 20.645L18.8179 17.405C18.7905 17.2453 18.8022 17.0813 18.8522 16.9271C18.9022 16.7729 18.9889 16.6332 19.1049 16.52L21.4579 14.226L18.2059 13.754C18.0454 13.7306 17.8929 13.6685 17.7617 13.573C17.6305 13.4775 17.5246 13.3516 17.4529 13.206L15.9989 10.26L14.5449 13.206C14.4733 13.3516 14.3673 13.4775 14.2361 13.573C14.1049 13.6685 13.9525 13.7306 13.7919 13.754L10.5399 14.226L12.8929 16.52C13.0089 16.6332 13.0956 16.7729 13.1456 16.9271C13.1956 17.0813 13.2074 17.2453 13.1799 17.405L12.6249 20.645L15.5339 19.115Z" fill="#FF6FA2"/>
</svg>
