<svg width="31" height="31" viewBox="0 0 31 31" fill="none" xmlns="http://www.w3.org/2000/svg">
<g clip-path="url(#clip0_2613_1695)">
<path fill-rule="evenodd" clip-rule="evenodd" d="M3.66865 4.41875C7.18337 0.904035 12.8819 0.904035 16.3966 4.41875C18.895 6.91716 19.6174 10.519 18.5639 13.6556L28.5116 23.6049C28.8532 23.9464 29.0596 24.4 29.0927 24.8819L29.3268 28.2874C29.3647 28.8383 28.9487 29.3157 28.3977 29.3536C28.3534 29.3566 28.309 29.3567 28.2647 29.3539L24.8438 29.1329C24.359 29.1016 23.9021 28.8948 23.5585 28.5513L13.9135 18.9057C10.5681 20.504 6.43967 19.9177 3.66865 17.1467C0.15393 13.632 0.15393 7.93347 3.66865 4.41875Z" stroke="#4D3EE9" stroke-width="2"/>
<path d="M12.153 12.904C13.3246 11.7325 13.3246 9.83297 12.153 8.66139C10.9815 7.48982 9.08196 7.48982 7.91038 8.66139C6.73881 9.83297 6.73881 11.7325 7.91038 12.904C9.08196 14.0756 10.9815 14.0756 12.153 12.904Z" stroke="#FF6FA2" stroke-width="2"/>
</g>
<defs>
<clipPath id="clip0_2613_1695">
<rect width="31" height="31" fill="white"/>
</clipPath>
</defs>
</svg>
